<?xml version="1.0" encoding="UTF-8" standalone="no"?>
<svg
   id="svg4795"
   version="1.1"
   viewBox="0 0 1 1"
   style="animation-delay: 0">
  
  <g
     transform="translate(0,-1.2882936)"
     id="layer1">
    <path
       id="rect5402"
       d="m 0.32442132,1.3228318 a 0.39109743,0.39109743 0 0 0 -0.39106233,0.3911232 0.39109743,0.39109743 0 0 0 6.37e-4,0.018255 0.25805536,0.25805536 0 0 0 -0.20213356,0.2515954 0.25805536,0.25805536 0 0 0 0.25802635,0.2580264 0.25805536,0.25805536 0 0 0 0.00387902,-1.161e-4 c 1.7456e-4,2.02e-5 2.8294e-4,1.742e-4 4.6321e-4,1.742e-4 h 0.993298 c 2.4717e-4,0 4.0156e-4,-1.951e-4 6.3737e-4,-2.315e-4 a 0.20989128,0.20989128 0 0 0 0.003701,1.729e-4 A 0.20989128,0.20989128 0 0 0 1.2017638,2.0319965 0.20989128,0.20989128 0 0 0 0.99186829,1.822101 0.20989128,0.20989128 0 0 0 0.92225043,1.8341946 0.17614656,0.17614656 0 0 0 0.74895885,1.689224 0.17614656,0.17614656 0 0 0 0.71480787,1.6926988 0.39109743,0.39109743 0 0 0 0.32443881,1.3228299 Z"
       style="stroke:none;stroke-width:0.00216471;stroke-linecap:round;stroke-linejoin:miter;stroke-miterlimit:4;stroke-dasharray:none;stroke-dashoffset:0;stroke-opacity:1;paint-order:stroke markers fill" />
  </g>
</svg>
