<?xml version="1.0" encoding="UTF-8" standalone="no"?>
<svg
   xmlns:dc="http://purl.org/dc/elements/1.1/"
   xmlns:cc="http://creativecommons.org/ns#"
   xmlns:rdf="http://www.w3.org/1999/02/22-rdf-syntax-ns#"
   xmlns:svg="http://www.w3.org/2000/svg"
   xmlns="http://www.w3.org/2000/svg"
   xmlns:sodipodi="http://sodipodi.sourceforge.net/DTD/sodipodi-0.dtd"
   xmlns:inkscape="http://www.inkscape.org/namespaces/inkscape"
   width="210mm"
   height="297mm"
   viewBox="0 0 210 297"
   version="1.1"
   id="svg8"
   inkscape:version="1.0.1 (3bc2e813f5, 2020-09-07)"
   sodipodi:docname="faces.svg">
  <defs
     id="defs2" />
  <sodipodi:namedview
     id="base"
     pagecolor="#ffffff"
     bordercolor="#666666"
     borderopacity="1.0"
     inkscape:pageopacity="0.0"
     inkscape:pageshadow="2"
     inkscape:zoom="2.8"
     inkscape:cx="339.0035"
     inkscape:cy="206.27166"
     inkscape:document-units="mm"
     inkscape:current-layer="layer1"
     inkscape:document-rotation="0"
     showgrid="false"
     inkscape:window-width="3440"
     inkscape:window-height="1361"
     inkscape:window-x="-9"
     inkscape:window-y="-9"
     inkscape:window-maximized="1"
     inkscape:snap-global="false" />
  <metadata
     id="metadata5">
    <rdf:RDF>
      <cc:Work
         rdf:about="">
        <dc:format>image/svg+xml</dc:format>
        <dc:type
           rdf:resource="http://purl.org/dc/dcmitype/StillImage" />
        <dc:title></dc:title>
      </cc:Work>
    </rdf:RDF>
  </metadata>
  <g
     inkscape:label="Layer 1"
     inkscape:groupmode="layer"
     id="layer1">
    <circle
       style="fill:none;stroke:#000000;stroke-width:1;stroke-linecap:round;stroke-miterlimit:4;stroke-dasharray:none;stroke-opacity:1;paint-order:markers stroke fill"
       id="path833"
       cx="22.851543"
       cy="14.031651"
       r="6.481286" />
    <path
       id="circle842"
       style="fill:#000000;fill-opacity:1;stroke:none;stroke-width:0.999998;stroke-linecap:round;stroke-miterlimit:4;stroke-dasharray:none;stroke-opacity:1;paint-order:markers stroke fill"
       d="m 20.907356,16.158296 a 2.0164421,2.0164421 0 0 0 2.014865,1.950785 2.0164421,2.0164421 0 0 0 2.015898,-1.950785 z" />
    <path
       id="path863"
       style="color:#000000;font-style:normal;font-variant:normal;font-weight:normal;font-stretch:normal;font-size:medium;line-height:normal;font-family:sans-serif;font-variant-ligatures:normal;font-variant-position:normal;font-variant-caps:normal;font-variant-numeric:normal;font-variant-alternates:normal;font-variant-east-asian:normal;font-feature-settings:normal;font-variation-settings:normal;text-indent:0;text-align:start;text-decoration:none;text-decoration-line:none;text-decoration-style:solid;text-decoration-color:#000000;letter-spacing:normal;word-spacing:normal;text-transform:none;writing-mode:lr-tb;direction:ltr;text-orientation:mixed;dominant-baseline:auto;baseline-shift:baseline;text-anchor:start;white-space:normal;shape-padding:0;shape-margin:0;inline-size:0;clip-rule:nonzero;display:inline;overflow:visible;visibility:visible;opacity:1;isolation:auto;mix-blend-mode:normal;color-interpolation:sRGB;color-interpolation-filters:linearRGB;solid-color:#000000;solid-opacity:1;vector-effect:none;fill:#000000;fill-opacity:1;fill-rule:nonzero;stroke:none;stroke-width:0.999998;stroke-linecap:round;stroke-linejoin:miter;stroke-miterlimit:4;stroke-dasharray:none;stroke-dashoffset:0;stroke-opacity:1;paint-order:markers stroke fill;color-rendering:auto;image-rendering:auto;shape-rendering:auto;text-rendering:auto;enable-background:accumulate;stop-color:#000000;stop-opacity:1"
       d="m 20.528749,12.162423 c -0.808387,10e-7 -1.47705,0.639013 -1.529623,1.435054 h 1.004073 c 0.04537,-0.251489 0.258297,-0.434597 0.52555,-0.434598 0.26725,0 0.481896,0.183111 0.527616,0.434598 h 1.004591 c -0.05271,-0.796049 -0.723815,-1.435054 -1.532207,-1.435054 z" />
    <path
       id="path869"
       style="color:#000000;font-style:normal;font-variant:normal;font-weight:normal;font-stretch:normal;font-size:medium;line-height:normal;font-family:sans-serif;font-variant-ligatures:normal;font-variant-position:normal;font-variant-caps:normal;font-variant-numeric:normal;font-variant-alternates:normal;font-variant-east-asian:normal;font-feature-settings:normal;font-variation-settings:normal;text-indent:0;text-align:start;text-decoration:none;text-decoration-line:none;text-decoration-style:solid;text-decoration-color:#000000;letter-spacing:normal;word-spacing:normal;text-transform:none;writing-mode:lr-tb;direction:ltr;text-orientation:mixed;dominant-baseline:auto;baseline-shift:baseline;text-anchor:start;white-space:normal;shape-padding:0;shape-margin:0;inline-size:0;clip-rule:nonzero;display:inline;overflow:visible;visibility:visible;opacity:1;isolation:auto;mix-blend-mode:normal;color-interpolation:sRGB;color-interpolation-filters:linearRGB;solid-color:#000000;solid-opacity:1;vector-effect:none;fill:#000000;fill-opacity:1;fill-rule:nonzero;stroke:none;stroke-width:0.999998;stroke-linecap:round;stroke-linejoin:miter;stroke-miterlimit:4;stroke-dasharray:none;stroke-dashoffset:0;stroke-opacity:1;paint-order:markers stroke fill;color-rendering:auto;image-rendering:auto;shape-rendering:auto;text-rendering:auto;enable-background:accumulate;stop-color:#000000;stop-opacity:1"
       d="m 25.306192,12.162423 c -0.808387,10e-7 -1.47705,0.639013 -1.529623,1.435054 h 1.004073 c 0.04537,-0.251489 0.258297,-0.434597 0.52555,-0.434598 0.26725,0 0.481896,0.183111 0.527616,0.434598 h 1.004591 c -0.05271,-0.796049 -0.723815,-1.435054 -1.532207,-1.435054 z" />
    <path
       id="circle871"
       style="fill:#c87137;fill-opacity:1;stroke:#000000;stroke-width:3.77953;stroke-linecap:round;stroke-miterlimit:4;stroke-dasharray:none;stroke-opacity:1;paint-order:fill markers stroke"
       d="m 171.72656,26.345703 c -15.71297,1.68e-4 -30.21076,12.526222 -30.37974,28.238281 -0.0641,5.962417 0.16481,46.257096 19.92466,56.619136 19.83596,10.40197 16.51841,-0.3577 17.58985,-10.71484 1.07142,-10.35714 4.55369,-12.080269 9.10547,-13.929686 14.2722,-5.798895 17.14163,-26.920645 11.3457,-42.457032 -4.63614,-12.42746 -14.9104,-17.755392 -27.58594,-17.755859 z m 10.2461,12.316406 c 3.99626,5.535285 8.81154,11.821097 14.24218,17.1875 -0.29522,13.313249 -11.17176,23.952093 -24.48828,23.953125 -11.87984,4.33e-4 -22.04762,-8.523212 -24.12109,-20.220703 12.57697,-4.342099 24.21929,-10.877728 34.36719,-20.919922 z"
       transform="scale(0.26458333)"
       sodipodi:nodetypes="cssssscccccc" />
    <path
       id="path873"
       style="fill:#000000;fill-opacity:1;stroke:none;stroke-width:0.999998;stroke-linecap:round;stroke-miterlimit:4;stroke-dasharray:none;stroke-opacity:1;paint-order:markers stroke fill"
       d="m 43.491631,16.759652 a 2.0164421,2.0164421 0 0 0 2.014865,1.950785 2.0164421,2.0164421 0 0 0 2.015898,-1.950785 z" />
    <circle
       style="fill:none;stroke:#000000;stroke-width:1;stroke-linecap:round;stroke-miterlimit:4;stroke-dasharray:none;stroke-opacity:1;paint-order:markers stroke fill"
       id="circle948"
       cx="68.420998"
       cy="14.031651"
       r="6.481286" />
    <path
       style="fill:#e3c375;fill-opacity:1;stroke:#000000;stroke-width:1;stroke-linecap:butt;stroke-linejoin:miter;stroke-miterlimit:4;stroke-dasharray:none;stroke-opacity:1"
       d="m 66.080831,6.2973345 c -3.313404,0.6983068 -4.443069,3.8425755 -4.111763,7.1508505 1.637024,-2.639286 2.937302,-1.537664 3.708245,-4.447409 4.887714,2.728015 6.938559,0.488548 9.094592,3.886111 C 74.482861,9.0659673 72.009327,9.2345593 73.721636,7.4803083 70.038913,6.9601334 68.86091,5.7114269 66.080831,6.2973345 Z"
       id="path958"
       sodipodi:nodetypes="sccccs" />
    <circle
       style="fill:none;fill-opacity:1;stroke:#000000;stroke-width:1;stroke-linecap:round;stroke-miterlimit:4;stroke-dasharray:none;stroke-opacity:1;paint-order:fill markers stroke"
       id="path987"
       cx="68.579056"
       cy="17.197916"
       r="1.063058" />
    <circle
       style="fill:none;fill-opacity:1;stroke:#000000;stroke-width:1;stroke-linecap:round;stroke-miterlimit:4;stroke-dasharray:none;stroke-opacity:1;paint-order:fill markers stroke"
       id="circle989"
       cx="68.579056"
       cy="17.197916"
       r="1.063058" />
    <path
       id="path997"
       style="fill:#c87137;fill-opacity:1;stroke:#000000;stroke-width:1;stroke-linecap:round;stroke-miterlimit:4;stroke-dasharray:none;stroke-opacity:1;paint-order:fill markers stroke"
       d="m 35.325121,71.982539 c -4.157389,4.4e-5 -7.993263,3.314229 -8.037972,7.471378 -0.01696,1.577556 0.04361,12.238857 5.271733,14.98048 5.248264,2.752188 4.370495,-0.09464 4.653981,-2.834968 0.283479,-2.740327 1.20483,-3.196238 2.409155,-3.685563 3.776186,-1.534291 4.53539,-7.122754 3.001883,-11.233423 -1.226645,-3.288099 -3.945043,-4.697781 -7.29878,-4.697904 z m 2.710948,3.258716 c 1.057343,1.464544 2.331386,3.127665 3.768243,4.547526 -0.07811,3.522463 -2.955861,6.337324 -6.479191,6.337597 -3.143207,1.15e-4 -5.833432,-2.2551 -6.382038,-5.350061 3.327657,-1.148847 6.408021,-2.878065 9.092986,-5.535062 z"
       sodipodi:nodetypes="cssssscccccc" />
    <path
       id="path999"
       style="fill:#000000;fill-opacity:1;stroke:none;stroke-width:0.999998;stroke-linecap:round;stroke-miterlimit:4;stroke-dasharray:none;stroke-opacity:1;paint-order:markers stroke fill"
       d="m 33.380767,81.771557 a 2.0164421,2.0164421 0 0 0 2.014865,1.950785 2.0164421,2.0164421 0 0 0 2.015898,-1.950785 z" />
    <text
       xml:space="preserve"
       style="font-style:normal;font-weight:normal;font-size:10.5833px;line-height:1.25;font-family:sans-serif;fill:#000000;fill-opacity:1;stroke:none;stroke-width:0.264583"
       x="26.174852"
       y="66.145836"
       id="text1005"><tspan
         sodipodi:role="line"
         id="tspan1003"
         x="26.174852"
         y="66.145836"
         style="stroke-width:0.264583">Angela</tspan></text>
  </g>
</svg>
