<?xml version="1.0" encoding="UTF-8" standalone="no"?>
<svg
   id="svg4795"
   version="1.1"
   viewBox="0 0 1 1"
   style="animation-delay: 0">
  <g
     transform="translate(0,-1.2882936)"
     id="layer1">
    <path
       id="rect5402-9"
       d="m 0.6031004,1.313415 a 0.39553715,0.39553715 0 0 0 -0.381635,0.2920689 0.26374681,0.26374681 0 0 0 -0.0522693,-0.00552 0.26374681,0.26374681 0 0 0 -0.25998585,0.2200924 0.21452045,0.21452045 0 0 0 -0.20280346,0.2139356 0.21452045,0.21452045 0 0 0 0.21452455,0.2145245 0.21452045,0.21452045 0 0 0 0.003914,-1.778e-4 c 1.9791e-4,2.56e-5 3.2705e-4,1.778e-4 5.3264e-4,1.778e-4 h 1.01520578 c 1.5767e-4,0 2.612e-4,-1.035e-4 4.1448e-4,-1.185e-4 a 0.32130082,0.32130082 0 0 0 0.004024,1.185e-4 A 0.32130082,0.32130082 0 0 0 1.2663354,1.9272103 0.32130082,0.32130082 0 0 0 0.98524829,1.6088641 0.39553715,0.39553715 0 0 0 0.60308175,1.3134186 Z"
       style="stroke:none;stroke-width:0.00221248;stroke-linecap:round;stroke-linejoin:miter;stroke-miterlimit:4;stroke-dasharray:none;stroke-dashoffset:0;stroke-opacity:1;paint-order:stroke markers fill" />
  </g>
</svg>
