<?xml version="1.0" encoding="UTF-8" standalone="no"?>
<svg
   
   id="svg4795"
   version="1.1"
   viewBox="0 0 1 1"
   >
  <g
     transform="translate(0,-1.2882936)"
     id="layer1">
    <path
       id="rect5402"
       d="m 0.31639414,1.2969264 a 0.41314512,0.41314512 0 0 0 -0.41310804,0.4131723 0.41314512,0.41314512 0 0 0 6.7291e-4,0.019284 0.27260295,0.27260295 0 0 0 -0.21352862,0.2657789 0.27260295,0.27260295 0 0 0 0.2725723,0.2725723 0.27260295,0.27260295 0 0 0 0.0040977,-1.226e-4 c 1.844e-4,2.13e-5 2.9889e-4,1.84e-4 4.8932e-4,1.84e-4 H 1.0168838 c 2.611e-4,0 4.242e-4,-2.061e-4 6.733e-4,-2.446e-4 a 0.22172367,0.22172367 0 0 0 0.00391,1.827e-4 A 0.22172367,0.22172367 0 0 0 1.2431958,2.0460695 0.22172367,0.22172367 0 0 0 1.0214677,1.8243414 0.22172367,0.22172367 0 0 0 0.94792521,1.8371167 0.18607663,0.18607663 0 0 0 0.76486451,1.6839736 0.18607663,0.18607663 0 0 0 0.7287883,1.6876443 0.41314512,0.41314512 0 0 0 0.31641262,1.2969244 Z"
       style="stroke:none;stroke-width:0.00228674;stroke-linecap:round;stroke-linejoin:miter;stroke-miterlimit:4;stroke-dasharray:none;stroke-dashoffset:0;stroke-opacity:1;paint-order:stroke markers fill" />
  </g>
</svg>
