<?xml version="1.0" encoding="UTF-8" standalone="no"?>
<svg
   id="svg4795"
   version="1.1"
   viewBox="0 0 1 1"
   style="animation-delay: 0"
   >
  
  <g
     transform="translate(0,-1.2882936)"
     id="layer1">
    <path
       id="rect5402-6"
       d="m 0.30420205,1.3401643 a 0.38972326,0.38972326 0 0 0 -0.38973982,0.3896799 0.38972326,0.38972326 0 0 0 0.009407,0.082888 0.19911764,0.19911764 0 0 0 -0.19228058,0.1989054 0.19911764,0.19911764 0 0 0 0.19914598,0.199146 0.19911764,0.19911764 0 0 0 0.004287,-1.808e-4 c 9.469e-5,6.5e-6 1.4496e-4,1.203e-4 2.4088e-4,1.203e-4 h 1.03308232 c 1.1568e-4,0 1.8754e-4,-1.11e-4 3.0105e-4,-1.203e-4 a 0.2289466,0.2289466 0 0 0 0.004226,1.808e-4 A 0.2289466,0.2289466 0 0 0 1.2017764,1.9818192 0.2289466,0.2289466 0 0 0 0.9778706,1.7530959 0.17894224,0.17894224 0 0 0 0.98703066,1.6970135 0.17894224,0.17894224 0 0 0 0.80806449,1.5180474 0.17894224,0.17894224 0 0 0 0.66692592,1.58738 0.38972326,0.38972326 0 0 0 0.30423227,1.3401639 Z"
       style="stroke:none;stroke-width:0.00245082;stroke-linecap:round;stroke-linejoin:miter;stroke-miterlimit:4;stroke-dasharray:none;stroke-dashoffset:0;stroke-opacity:1;paint-order:stroke markers fill" />
  </g>
</svg>
